<?xml version="1.0" encoding="utf-8"?>
<!-- Generator: Adobe Illustrator 27.0.0, SVG Export Plug-In . SVG Version: 6.00 Build 0)  -->
<svg version="1.1" id="Livello_1" xmlns="http://www.w3.org/2000/svg" xmlns:xlink="http://www.w3.org/1999/xlink" x="0px" y="0px"
	 viewBox="0 0 375 379" style="enable-background:new 0 0 375 379;" xml:space="preserve">
<g>
	<path d="M179.1,222c-5,0-10,0-15,0c-5.4,0-8.6-3.2-8.6-8.5c0-10.2,0-20.3,0-30.5c0-5,3.2-8.3,8.3-8.3c10.2-0.1,20.5-0.1,30.7,0
		c4.9,0,8.2,3.2,8.3,8.1c0.1,10.3,0.1,20.7,0,31c0,5.1-3.4,8.2-8.4,8.2C189.3,222.1,184.2,222,179.1,222z"/>
	<path d="M207.6,127.2c-0.2,0.7-0.4,1.9-0.9,3.1c-3.8,9.3-7.7,18.6-11.6,27.9c-2.1,5-6.3,6.7-11.4,4.6c-9.2-3.8-18.4-7.6-27.7-11.5
		c-4.9-2-6.7-6.2-4.7-11.2c3.8-9.4,7.7-18.8,11.6-28.1c1.9-4.6,6.2-6.5,10.8-4.6c9.6,3.9,19.1,7.9,28.6,11.8
		C205.8,120.7,207.4,123.2,207.6,127.2z"/>
	<path d="M278.6,206.7c-0.3,3.6-1.7,6.1-4.6,7.3c-9.8,4.2-19.6,8.3-29.5,12.2c-4.1,1.7-8.4-0.2-10.1-4.3
		c-4.1-9.7-8.2-19.5-12.1-29.3c-1.7-4.1,0.2-8.4,4.3-10.2c9.7-4.1,19.5-8.1,29.3-12.1c4-1.6,8.4,0.1,10.1,4
		c4.2,9.9,8.2,19.8,12.3,29.7C278.5,205.2,278.5,206.2,278.6,206.7z"/>
	<path d="M155.5,261.5c0-5.1,0-10.2,0-15.2c0-5.1,3.2-8.3,8.3-8.3c10.2,0,20.5,0,30.7,0c4.9,0,8.2,3.1,8.3,8.1
		c0.1,10.3,0.1,20.7,0,31c0,5-3.2,8.1-8.2,8.2c-10.3,0.1-20.7,0.1-31,0c-5.1-0.1-8.1-3.3-8.1-8.5c0-0.1,0-0.2,0-0.2
		C155.5,271.5,155.5,266.5,155.5,261.5z"/>
	<path d="M116,222c-5.1,0-10.2,0-15.2,0c-5.1,0-8.4-3.1-8.4-8.2c-0.1-10.3-0.1-20.7,0-31c0-4.9,3.3-8.1,8.2-8.1
		c10.2-0.1,20.5-0.1,30.7,0c5.1,0,8.2,3.3,8.3,8.3c0,10.2,0,20.5,0,30.7c0,5-3.3,8.2-8.4,8.2C126.1,222.1,121.1,222,116,222z"/>
	<path d="M242.4,237.9c5.1,0,10.2,0,15.2,0c5,0,8.3,3.3,8.3,8.3c0,10.2,0,20.3,0,30.5c0,5-3.2,8.4-8.2,8.4c-10.3,0.1-20.7,0.1-31,0
		c-5-0.1-8.1-3.4-8.2-8.5c0-10.1,0-20.2,0-30.2c0-5.3,3.3-8.5,8.6-8.5C232.2,237.9,237.3,237.9,242.4,237.9z"/>
	<path d="M139.6,135.3c0,5.1,0,10.2,0,15.2c0,5-3.3,8.3-8.3,8.4c-10.2,0.1-20.5,0.1-30.7,0c-4.9,0-8.2-3.3-8.2-8.2
		c-0.1-10.3-0.1-20.7,0-31c0-5,3.3-8.2,8.4-8.2c10.2,0,20.3,0,30.5,0c5,0,8.2,3.3,8.4,8.3c0,0.2,0,0.3,0,0.5
		C139.6,125.3,139.6,130.3,139.6,135.3z"/>
	<path d="M282.3,126.1c-1.1,2-1.7,4.1-3,5.5c-7.2,7.5-14.6,14.8-22,22.1c-3.4,3.4-8,3.3-11.4,0c-7.4-7.3-14.8-14.7-22.1-22.1
		c-3.2-3.3-3.3-7.9,0-11.2c7.4-7.5,14.8-14.9,22.3-22.3c3.2-3.2,7.8-3.3,11-0.1c7.6,7.5,15.2,15,22.6,22.7
		C280.8,122,281.3,124.1,282.3,126.1z"/>
	<path d="M139.6,261.5c0,5.1,0,10.2,0,15.2c0,5.1-3.1,8.4-8.2,8.4c-10.3,0.1-20.7,0.1-31,0c-5-0.1-8.1-3.3-8.1-8.2
		c-0.1-10.2-0.1-20.5,0-30.7c0-5.1,3.2-8.2,8.3-8.3c10.2,0,20.5,0,30.7,0c4.9,0,8.1,3.2,8.2,8.1c0,0.2,0,0.3,0,0.5
		C139.6,251.5,139.6,256.5,139.6,261.5z"/>
</g>
</svg>
