<?xml version="1.0" encoding="utf-8"?>
<!-- Generator: Adobe Illustrator 27.0.0, SVG Export Plug-In . SVG Version: 6.00 Build 0)  -->
<svg version="1.1" id="Livello_1" xmlns="http://www.w3.org/2000/svg" xmlns:xlink="http://www.w3.org/1999/xlink" x="0px" y="0px"
	 viewBox="0 0 375 379" style="enable-background:new 0 0 375 379;" xml:space="preserve">
<g>
	<path d="M274.1,208.5c-4.1,0-8.2,0-12.2,0c-4,0-5.8-1.8-5.8-5.8c0-8.2,0-16.3,0-24.5c0-3.8,1.9-5.7,5.7-5.7c8.2,0,16.5,0,24.7,0
		c3.8,0,5.6,1.7,5.6,5.5c0,8.3,0,16.6,0,25c0,3.8-1.8,5.5-5.7,5.6C282.3,208.5,278.2,208.5,274.1,208.5z"/>
	<path d="M123.9,190.4c0-4.2,0-8.3,0-12.5c0-3.6,1.8-5.4,5.4-5.4c8.4,0,16.8,0,25.2,0c3.3,0,5.3,1.9,5.3,5.3c0.1,8.5,0.1,17,0,25.5
		c0,3.3-2,5.2-5.3,5.2c-8.4,0-16.8,0-25.2,0c-3.6,0-5.4-1.8-5.4-5.4C123.9,198.9,123.9,194.6,123.9,190.4z"/>
	<path d="M248,190.7c0,4.1,0,8.2,0,12.2c0,3.8-1.8,5.6-5.7,5.6c-8.2,0-16.5,0-24.7,0c-3.7,0-5.5-1.9-5.6-5.5c0-8.3,0-16.6,0-25
		c0-3.6,1.9-5.5,5.6-5.5c8.2,0,16.5,0,24.7,0c3.9,0,5.6,1.8,5.6,5.7C248.1,182.3,248,186.5,248,190.7z"/>
	<path d="M168,190.5c0-4.2,0-8.3,0-12.5c0-3.7,1.8-5.5,5.6-5.5c8.3,0,16.6,0,25,0c3.5,0,5.4,1.9,5.5,5.4c0,8.4,0,16.8,0,25.2
		c0,3.5-1.9,5.4-5.4,5.4c-8.4,0-16.8,0-25.2,0c-3.4,0-5.3-1.9-5.3-5.2C167.9,199,168,194.7,168,190.5z"/>
	<path d="M79.9,190.5c0-4.2,0-8.3,0-12.5c0-3.8,1.8-5.5,5.5-5.5c8.3,0,16.6,0,25,0c3.5,0,5.4,1.8,5.5,5.4c0.1,8.4,0.1,16.8,0,25.2
		c0,3.5-1.9,5.4-5.5,5.4c-8.4,0-16.8,0-25.2,0c-3.4,0-5.2-1.8-5.3-5.3C79.8,199,79.9,194.7,79.9,190.5z"/>
</g>
</svg>
